<?xml version="1.0" encoding="UTF-8"?>
<svg id="Layer_1" data-name="Layer 1" xmlns="http://www.w3.org/2000/svg" viewBox="0 0 1080 1080">
  <defs>
    <style>
      .cls-1 {
        fill: #1b75bb;
      }
    </style>
  </defs>
  <path class="cls-1" d="M622.63,638.65c10.63-38.88-4.93-89.36-23.12-124.07-21.46-40.94-72.64-103.28-124.43-99.18-12.22.97-23.2,11.88-24.92,24.68-.37,2.73-.59,11.02-.59,11.02-.06.08.02,4.22-.04,4.29-.07.08-.28-3.9-.35-3.82-4.53-50.78,45.38-60.22,85.48-51.7,49.5,10.51,93.67,48.12,119.7,90.38.03,0,.07,0,.1,0,.06.16.14.34.25.57.09.19.21.36.35.51,21.26,35.97,31.28,80.63,22,121.95-7.95,35.4-31.92,62.84-69.05,67.6,0,0-.64.03-.9.07-6.21,1.08-25.65.22-25.65.22-.06,0-1.35-.12-2.5-.27-4.4-.58-9.91-2.07-14.51-3.35-8.52-2.37-17.28-5.99-25.12-10.09-2.66-1.39-6.48-4.2-9.14-5.67,10.37,5.81,21.69,11.05,33.19,13.31,29.66,5.81,51.32-7.48,59.24-36.45Z"/>
  <path class="cls-1" d="M576.75,530.29c-12.25,12.76-22.59,27.25-31.26,42.66l-.07.1c-.04.06-.07.11-.1.17-.19.21-.2.24-.32.45-.03.04-.1.15-.13.18q-.06.09-.07.13c-.03.07-.09.1-.14.16l-.18.26-27.04,50.94-.74,1.21s-.2.3-.27.4c-.05.07-.2.28-.2.28-12.4,23.66-29.5,50.65-58.29,55.03l-2.3.24s-.06,0-.08,0c0,0-9.6.8-14.06.1-.05,0-.09,0-.14,0l-2.79-.33c-32.7-3.08-50.14-44.3-31.39-70.41,5.4,17.14,24,17.66,36.66,15.33,10.37-1.9,22.62-7.34,31.78-13.44.32-.15.2-.09.52-.25.13-.06.42-.22.49-.24l17.03-12.34c.09-.09-.01,0,.09-.07.42-.31.7-.49,1.1-.8,3.62-2.6,7.38-5.31,10.89-8.16,17.07-13.86,32.27-30.02,48.42-44.88,4.99-4.6,16.67-13.75,21.08-17.36,1.69-1.39,1.01-.73,3.26-2.32l16.16-12.88-16.74,14.69-1.15,1.16"/>
</svg>