<?xml version="1.0" encoding="UTF-8"?>
<svg id="Layer_1" data-name="Layer 1" xmlns="http://www.w3.org/2000/svg" viewBox="0 0 1080 1080">
  <defs>
    <style>
      .cls-1 {
        fill: #fff;
      }
    </style>
  </defs>
  <rect width="1080" height="1080"/>
  <g>
    <g>
      <polygon class="cls-1" points="326.86 694.13 369.23 694.13 369.23 677.58 326.86 677.58 326.86 657.89 374.84 657.89 374.84 640.94 305.87 640.94 305.87 732.21 376.53 732.21 376.53 715.26 326.86 715.26 326.86 694.13"/>
      <path class="cls-1" d="M451.51,686.12c-3.13-1.87-6.56-3.41-10.3-4.63-3.74-1.22-7.52-2.24-11.34-3.06-3.83-.83-7.3-1.65-10.43-2.48-3.13-.83-5.65-1.98-7.56-3.46-1.91-1.48-2.87-3.43-2.87-5.87,0-1.91.59-3.65,1.76-5.22,1.17-1.56,3.02-2.8,5.54-3.72,2.52-.91,5.87-1.37,10.04-1.37s8.17.59,12.52,1.76c4.35,1.17,8.56,2.93,12.65,5.28l6.65-15.91c-4.17-2.61-9.06-4.61-14.67-6-5.61-1.39-11.28-2.09-17.02-2.09-8.61,0-15.76,1.28-21.45,3.85-5.69,2.56-9.93,6-12.71,10.3-2.78,4.3-4.17,9.06-4.17,14.28,0,4.78.93,8.76,2.8,11.93,1.87,3.17,4.39,5.74,7.56,7.69,3.17,1.96,6.65,3.52,10.43,4.69,3.78,1.17,7.54,2.17,11.28,3,3.74.83,7.19,1.69,10.37,2.61,3.17.91,5.71,2.09,7.63,3.52,1.91,1.43,2.87,3.37,2.87,5.8,0,1.91-.61,3.59-1.83,5.02-1.22,1.43-3.11,2.59-5.67,3.46-2.57.87-5.93,1.3-10.11,1.3-5.48,0-10.91-.89-16.3-2.67-5.39-1.78-10-4.06-13.82-6.85l-7.17,15.91c4.08,3.13,9.5,5.67,16.23,7.63,6.74,1.96,13.76,2.93,21.06,2.93,8.61,0,15.78-1.3,21.51-3.91,5.74-2.61,10.02-6.04,12.84-10.3,2.82-4.26,4.24-8.95,4.24-14.08,0-4.69-.98-8.63-2.93-11.8-1.96-3.17-4.5-5.69-7.63-7.56Z"/>
      <polygon class="cls-1" points="539.38 696.31 494.01 640.94 476.54 640.94 476.54 732.21 497.4 732.21 497.4 676.83 542.77 732.21 560.25 732.21 560.25 640.94 539.38 640.94 539.38 696.31"/>
      <path class="cls-1" d="M610.44,640.94l-40.55,91.27h21.64l8.13-19.56h42.28l8.13,19.56h22.17l-40.94-91.27h-20.86ZM606.34,696.61l14.47-34.79,14.47,34.79h-28.94Z"/>
      <path class="cls-1" d="M767.17,662.52c-4.26-6.82-10.17-12.13-17.73-15.91s-16.3-5.67-26.21-5.67h-41.46v91.27h41.46c9.91,0,18.64-1.89,26.21-5.67,7.56-3.78,13.47-9.08,17.73-15.91,4.26-6.82,6.39-14.84,6.39-24.06s-2.13-17.23-6.39-24.06ZM748.46,701.63c-2.48,4.3-5.96,7.61-10.43,9.91-4.48,2.3-9.76,3.46-15.84,3.46h-19.17v-56.85h19.17c6.08,0,11.36,1.15,15.84,3.46,4.48,2.3,7.95,5.59,10.43,9.84,2.48,4.26,3.72,9.3,3.72,15.12s-1.24,10.76-3.72,15.06Z"/>
    </g>
    <g>
      <polygon class="cls-1" points="333.87 748.51 306.06 748.51 306.06 752.69 317.59 752.69 317.59 782.14 322.34 782.14 322.34 752.69 333.87 752.69 333.87 748.51"/>
      <path class="cls-1" d="M396.8,748.51h-5.24l-9.33,12.9-9.4-12.9h-5.48l11.86,16.39-12.01,16.38-14.89-32.78h-4.76l-15.23,33.63h4.95l3.69-8.41h17.88l3.69,8.41h9.56l9.95-13.86,10.08,13.86h5.52l-12.72-17.39,11.85-16.24ZM342.67,769.89l7.25-16.5,7.25,16.5h-14.5Z"/>
      <path class="cls-1" d="M422.07,756.05c1.18-1.15,2.58-2.05,4.2-2.69,1.62-.64,3.37-.96,5.26-.96s3.54.33,5.14.98c1.6.66,3.04,1.66,4.32,3l3.12-3.03c-1.54-1.73-3.4-3.03-5.6-3.91s-4.59-1.32-7.18-1.32-4.92.42-7.08,1.27c-2.16.85-4.04,2.05-5.64,3.6-1.6,1.55-2.85,3.37-3.75,5.45-.9,2.08-1.34,4.37-1.34,6.87s.45,4.79,1.34,6.87c.9,2.08,2.14,3.9,3.72,5.45,1.59,1.55,3.46,2.75,5.62,3.6,2.16.85,4.52,1.27,7.08,1.27s5.04-.45,7.23-1.35c2.19-.9,4.06-2.21,5.6-3.94l-3.12-3.03c-1.28,1.38-2.72,2.39-4.32,3.05-1.6.66-3.31.98-5.14.98s-3.64-.32-5.26-.96c-1.62-.64-3.02-1.54-4.2-2.69-1.19-1.15-2.11-2.52-2.76-4.11-.66-1.59-.98-3.31-.98-5.16s.33-3.58.98-5.16c.66-1.58,1.58-2.95,2.76-4.11Z"/>
      <path class="cls-1" d="M478.23,753c-1.6-1.55-3.49-2.75-5.67-3.6-2.18-.85-4.55-1.27-7.11-1.27s-4.98.43-7.16,1.3c-2.18.86-4.07,2.07-5.67,3.63-1.6,1.55-2.85,3.37-3.75,5.45-.9,2.08-1.35,4.36-1.35,6.82s.45,4.74,1.35,6.82c.9,2.08,2.14,3.9,3.75,5.45,1.6,1.55,3.5,2.76,5.69,3.63,2.19.86,4.57,1.3,7.13,1.3s4.93-.42,7.11-1.27c2.18-.85,4.07-2.05,5.67-3.6,1.6-1.55,2.84-3.37,3.72-5.45.88-2.08,1.32-4.37,1.32-6.87s-.44-4.75-1.32-6.85c-.88-2.1-2.12-3.92-3.72-5.48ZM477.48,770.46c-.66,1.57-1.57,2.94-2.74,4.11-1.17,1.17-2.55,2.07-4.13,2.71s-3.32.96-5.21.96-3.58-.32-5.16-.96-2.97-1.54-4.16-2.71c-1.18-1.17-2.11-2.54-2.76-4.11-.66-1.57-.99-3.28-.99-5.14s.33-3.56.99-5.12c.66-1.55,1.58-2.92,2.76-4.11,1.18-1.18,2.57-2.1,4.16-2.74,1.58-.64,3.31-.96,5.16-.96s3.63.32,5.21.96c1.58.64,2.96,1.55,4.13,2.74,1.17,1.19,2.08,2.55,2.74,4.11.66,1.55.99,3.26.99,5.12s-.33,3.57-.99,5.14Z"/>
      <polygon class="cls-1" points="514.73 773.57 494.56 748.51 490.62 748.51 490.62 782.14 495.42 782.14 495.42 757.08 515.6 782.14 519.54 782.14 519.54 748.51 514.73 748.51 514.73 773.57"/>
      <path class="cls-1" d="M548.43,765.95c-1.2-.67-2.53-1.22-3.99-1.63-1.46-.42-2.91-.79-4.35-1.13-1.44-.34-2.76-.71-3.96-1.13-1.2-.42-2.18-.98-2.93-1.68-.75-.7-1.13-1.65-1.13-2.83,0-.99.28-1.89.84-2.69.56-.8,1.45-1.44,2.67-1.92,1.22-.48,2.77-.72,4.66-.72,1.5,0,3.06.22,4.66.65,1.6.43,3.12,1.13,4.56,2.09l1.58-3.84c-1.41-.96-3.07-1.7-5-2.21-1.92-.51-3.86-.77-5.81-.77-2.95,0-5.37.44-7.28,1.32-1.91.88-3.31,2.05-4.23,3.51-.91,1.46-1.37,3.05-1.37,4.78s.37,3.26,1.11,4.4c.74,1.14,1.71,2.04,2.91,2.71,1.2.67,2.53,1.23,3.99,1.66,1.46.43,2.91.81,4.35,1.13,1.44.32,2.76.7,3.96,1.13,1.2.43,2.18,1,2.93,1.71.75.7,1.13,1.63,1.13,2.79,0,.99-.29,1.88-.87,2.67-.58.79-1.47,1.4-2.69,1.85-1.22.45-2.8.67-4.76.67-2.15,0-4.21-.37-6.2-1.1-1.99-.74-3.62-1.66-4.9-2.79l-1.78,3.75c1.34,1.25,3.19,2.27,5.52,3.05,2.34.79,4.79,1.18,7.35,1.18,2.95,0,5.39-.44,7.33-1.32s3.37-2.05,4.3-3.51c.93-1.46,1.39-3.03,1.39-4.73s-.37-3.2-1.1-4.32c-.74-1.12-1.71-2.02-2.91-2.69Z"/>
      <path class="cls-1" d="M582.95,767.44c0,3.75-.83,6.48-2.47,8.21-1.65,1.73-4,2.59-7.04,2.59s-5.34-.86-6.99-2.59c-1.65-1.73-2.47-4.47-2.47-8.21v-18.93h-4.8v19.12c0,4.87,1.26,8.57,3.79,11.1,2.53,2.53,6,3.79,10.42,3.79s7.93-1.26,10.45-3.79c2.51-2.53,3.77-6.23,3.77-11.1v-19.12h-4.66v18.93Z"/>
      <polygon class="cls-1" points="602.26 748.51 597.45 748.51 597.45 782.14 620.46 782.14 620.46 777.96 602.26 777.96 602.26 748.51"/>
      <polygon class="cls-1" points="645.83 748.51 618.01 748.51 618.01 752.69 629.54 752.69 629.54 782.14 634.3 782.14 634.3 752.69 645.83 752.69 645.83 748.51"/>
      <path class="cls-1" d="M659.52,748.51l-15.23,33.63h4.95l3.69-8.41h17.88l3.69,8.41h5.04l-15.28-33.63h-4.76ZM654.62,769.89l7.25-16.5,7.25,16.5h-14.5Z"/>
      <polygon class="cls-1" points="708.66 773.57 688.48 748.51 684.54 748.51 684.54 782.14 689.35 782.14 689.35 757.08 709.52 782.14 713.46 782.14 713.46 748.51 708.66 748.51 708.66 773.57"/>
      <polygon class="cls-1" points="718.7 752.69 730.23 752.69 730.23 782.14 734.98 782.14 734.98 752.69 746.51 752.69 746.51 748.51 718.7 748.51 718.7 752.69"/>
      <path class="cls-1" d="M773.03,768.64c-.74-1.12-1.71-2.02-2.91-2.69-1.2-.67-2.53-1.22-3.99-1.63-1.46-.42-2.91-.79-4.35-1.13s-2.76-.71-3.96-1.13c-1.2-.42-2.18-.98-2.93-1.68-.75-.7-1.13-1.65-1.13-2.83,0-.99.28-1.89.84-2.69.56-.8,1.45-1.44,2.67-1.92s2.77-.72,4.66-.72c1.5,0,3.06.22,4.66.65,1.6.43,3.12,1.13,4.56,2.09l1.58-3.84c-1.41-.96-3.07-1.7-5-2.21-1.92-.51-3.86-.77-5.81-.77-2.95,0-5.37.44-7.28,1.32s-3.31,2.05-4.23,3.51c-.91,1.46-1.37,3.05-1.37,4.78s.37,3.26,1.1,4.4c.74,1.14,1.71,2.04,2.91,2.71,1.2.67,2.53,1.23,3.99,1.66,1.46.43,2.91.81,4.35,1.13,1.44.32,2.76.7,3.96,1.13,1.2.43,2.18,1,2.93,1.71.75.7,1.13,1.63,1.13,2.79,0,.99-.29,1.88-.86,2.67-.58.79-1.47,1.4-2.69,1.85-1.22.45-2.8.67-4.76.67-2.15,0-4.21-.37-6.2-1.1-1.99-.74-3.62-1.66-4.9-2.79l-1.78,3.75c1.34,1.25,3.19,2.27,5.52,3.05,2.34.79,4.79,1.18,7.35,1.18,2.95,0,5.39-.44,7.33-1.32,1.94-.88,3.37-2.05,4.3-3.51.93-1.46,1.39-3.03,1.39-4.73s-.37-3.2-1.1-4.32Z"/>
    </g>
    <g>
      <path class="cls-1" d="M622.63,539.03c10.63-38.88-4.93-89.36-23.12-124.07-21.46-40.94-72.64-103.28-124.43-99.18-12.22.97-23.2,11.88-24.92,24.68-.37,2.73-.59,11.02-.59,11.02-.06.08.02,4.22-.04,4.29-.07.08-.28-3.9-.35-3.82-4.53-50.78,45.38-60.22,85.48-51.7,49.5,10.51,93.67,48.12,119.7,90.38.03,0,.07,0,.1,0,.06.16.14.34.25.57.09.19.21.36.35.51,21.26,35.97,31.28,80.63,22,121.95-7.95,35.4-31.92,62.84-69.05,67.6,0,0-.64.03-.9.07-6.21,1.08-25.65.22-25.65.22-.06,0-1.35-.12-2.5-.27-4.4-.58-9.91-2.07-14.51-3.35-8.52-2.37-17.28-5.99-25.12-10.09-2.66-1.39-6.48-4.2-9.14-5.67,10.37,5.81,21.69,11.05,33.19,13.31,29.66,5.81,51.32-7.48,59.24-36.45Z"/>
      <path class="cls-1" d="M576.75,430.68c-12.25,12.76-22.59,27.25-31.26,42.66l-.07.1c-.04.06-.07.11-.1.17-.19.21-.2.24-.32.45-.03.04-.1.15-.13.18q-.06.09-.07.13c-.03.07-.09.1-.14.16l-.18.26-27.04,50.94-.74,1.21s-.2.3-.27.4c-.05.07-.2.28-.2.28-12.4,23.66-29.5,50.65-58.29,55.03l-2.3.24s-.06,0-.08,0c0,0-9.6.8-14.06.1-.05,0-.09,0-.14,0l-2.79-.33c-32.7-3.08-50.14-44.3-31.39-70.41,5.4,17.14,24,17.66,36.66,15.33,10.37-1.9,22.62-7.34,31.78-13.44.32-.15.2-.09.52-.25.13-.06.42-.22.49-.24l17.03-12.34c.09-.09-.01,0,.09-.07.42-.31.7-.49,1.1-.8,3.62-2.6,7.38-5.31,10.89-8.16,17.07-13.86,32.27-30.02,48.42-44.88,4.99-4.6,16.67-13.75,21.08-17.36,1.69-1.39,1.01-.73,3.26-2.32l16.16-12.88-16.74,14.69-1.15,1.16"/>
    </g>
  </g>
</svg>